<svg width="1440" height="864" viewBox="0 0 1440 864" fill="none" xmlns="http://www.w3.org/2000/svg">
<g clip-path="url(#clip0)">
<path opacity="0.1" d="M1262.4 721C1318.13 721 1363.3 714.546 1363.3 706.584C1363.3 698.623 1318.13 692.169 1262.4 692.169C1206.68 692.169 1161.5 698.623 1161.5 706.584C1161.5 714.546 1206.68 721 1262.4 721Z" fill="#63B4FF"/>
<path opacity="0.1" d="M529.485 311.524H613.705V438.943H535.651C535.443 440.251 535.244 441.568 535.028 442.885H613.705V545.646C613.564 545.6 613.439 545.545 613.306 545.489C611.082 544.513 608.875 543.481 606.668 542.376L605.257 541.667C603.044 540.506 600.831 539.278 598.618 537.982C597.847 537.531 597.075 537.061 596.311 536.582C584.026 528.943 572.866 519.264 563.218 507.88C562.936 507.576 562.67 507.253 562.388 506.959C561.044 505.337 559.724 503.698 558.446 502.021L557.035 500.179C555.525 498.125 554.065 496.016 552.646 493.879C552.438 493.565 552.239 493.252 552.023 492.958C546.252 484.075 541.46 474.458 537.75 464.311C537.634 464.007 537.534 463.675 537.426 463.39C536.287 460.135 535.277 456.85 534.398 453.533C534.016 452.143 533.651 450.77 533.335 449.324C533.219 448.9 533.12 448.486 533.028 448.071C528.315 427.65 527.759 406.436 527.759 385.37C527.759 382.911 527.759 380.442 527.759 378.001C527.759 369.481 527.85 360.905 527.983 352.339C527.983 350.119 528.066 347.908 528.107 345.679C528.224 340.023 528.39 334.368 528.605 328.712C528.655 327.137 528.721 325.571 528.796 324.005C528.796 323.102 528.838 322.2 528.921 321.297C529.12 318.018 529.286 314.766 529.485 311.524Z" fill="#63B4FF"/>
<path opacity="0.1" d="M613.705 169.652H567.508C575.017 156.605 583.223 144.068 592.079 132.108C598.942 122.749 606.186 113.63 613.705 104.842V169.652Z" fill="#63B4FF"/>
<path opacity="0.1" d="M613.705 173.595V307.581H529.75C529.75 307.195 529.809 306.799 529.833 306.412C529.908 305.352 529.983 304.293 530.066 303.243C530.157 302.009 530.257 300.765 530.365 299.558C530.472 298.352 530.589 296.878 530.713 295.542C530.838 294.207 530.954 292.853 531.095 291.517C531.236 290.181 531.36 288.846 531.51 287.519C531.659 286.193 531.792 284.848 531.95 283.522C532.074 282.416 532.207 281.32 532.34 280.215C532.53 278.658 532.73 277.092 532.945 275.545C532.945 275.315 533.003 275.075 533.037 274.854C534.551 263.526 536.615 252.296 539.219 241.215C541.945 229.59 545.425 218.2 549.633 207.133C554.106 195.556 559.342 184.362 565.301 173.641L613.705 173.595Z" fill="#63B4FF"/>
<path opacity="0.1" d="M633.812 311.515V438.943H813.695V311.515H633.812ZM633.812 442.876V552.305C634.841 552.545 635.861 552.775 636.874 552.969C638.251 553.263 639.62 553.531 641.023 553.761C641.288 553.807 641.562 553.853 641.853 553.881C642.4 553.982 642.965 554.065 643.512 554.148C644.898 554.36 646.276 554.535 647.662 554.673C648.317 554.746 648.981 554.811 649.645 554.866L651.246 555.004C652.118 555.078 652.981 555.133 653.836 555.161C654.367 555.161 654.898 555.216 655.445 555.235C655.86 555.235 656.275 555.235 656.707 555.235C657.138 555.235 657.752 555.235 658.275 555.235C658.989 555.235 659.702 555.235 660.408 555.235H661.362C662.076 555.235 662.789 555.235 663.495 555.161H663.545C664.034 555.161 664.532 555.161 665.03 555.087C665.168 555.096 665.307 555.096 665.445 555.087C665.86 555.087 666.275 555.087 666.673 555.023H666.964L669.743 554.783C670.656 554.691 671.577 554.571 672.507 554.461L674.399 554.212C682.096 553.015 689.708 551.217 697.178 548.833C713.957 543.638 730.371 536.37 747.142 531.046C768.826 524.184 792.783 520.812 813.736 529.204V442.876H633.812ZM813.695 169.652V0.00920453C794.001 -0.227638 774.36 2.32922 755.25 7.61768C709.7 20.32 668.831 47.8708 633.812 83.0577V169.643H642.84V173.576H633.812V307.581H813.695V173.586H679.909V169.652H813.695ZM1044.75 112.349C1033.48 111.907 1022.27 107.946 1012.14 101.83C992.765 90.1319 977.288 72.0687 959.995 56.8241C924.063 25.073 879.501 5.9136 833.785 1.16061V169.652H1090.58L1091.22 168.906L1044.75 112.349ZM1068.14 107.744L1092.94 137.957V99.8221C1084.64 100.964 1077.36 103.682 1068.17 107.707L1068.14 107.744ZM1092.94 579.479V442.876H1040.09C1039.95 442.296 1039.81 441.706 1039.64 441.117C1039.8 441.706 1039.93 442.296 1040.08 442.876H833.818V541.667C835.777 543.278 837.71 544.973 839.627 546.696C841.693 548.538 843.735 550.482 845.784 552.388L847.851 554.286C848.838 555.207 849.834 556.128 850.838 556.994C852.83 558.787 854.841 560.556 856.871 562.3C857.875 563.221 858.904 564.05 859.925 564.916C876.129 578.668 893.223 591.078 911.068 602.046C915.067 604.502 919.103 606.9 923.175 609.24C925.888 610.778 928.619 612.307 931.357 613.79C935.473 616.02 939.622 618.169 943.805 620.238C982.364 639.451 1023.14 652.636 1064.96 659.414C1074.25 660.937 1083.57 662.134 1092.93 663.006V579.469H1093.76L1092.94 579.479ZM833.818 173.586V307.581H1092.98V173.586H833.818ZM833.818 311.515V438.943H1092.98V311.515H833.818ZM1113.09 99.6563V142.194L1144.75 103.636C1134.26 101.756 1123.71 100.415 1113.09 99.6103V99.6563ZM1113.09 311.561V438.943H1365.15V311.515L1113.09 311.561ZM1364.23 589.593L1365.12 442.876H1113.09V664.471C1129.33 665.228 1145.59 665.013 1161.8 663.826V663.826H1162.08C1169.83 663.285 1177.54 662.499 1185.21 661.468H1185.39C1226.32 656.179 1266.35 644.324 1304.22 626.272L1364.23 589.593ZM1413.76 332.498C1412.81 330.02 1411.82 327.561 1410.82 325.129C1408.94 320.523 1406.96 316.047 1404.92 311.57H1385.25V438.943H1434.98C1434.95 402.872 1426.73 366.027 1413.78 332.452L1413.76 332.498ZM1385.25 442.922V569.116C1399.26 554.212 1411.09 537.162 1419.61 517.671C1429.86 494.201 1434.55 468.787 1434.93 442.904L1385.25 442.922ZM1385.25 274.43V307.591H1403.08C1397.68 296.175 1391.74 285.091 1385.28 274.384L1385.25 274.43ZM1214.31 124.656C1212.99 124.103 1211.68 123.541 1210.36 122.998C1196.45 117.293 1182.23 112.55 1167.79 108.794L1119.34 167.81L1118.41 168.906L1119.03 169.662H1291.46C1267.44 151.313 1241.55 136.19 1214.33 124.61L1214.31 124.656ZM1296.51 173.632H1116.63L1113.09 177.224V307.581H1144.08H1144.13H1365.19V244.438C1345.19 217.593 1322.11 193.773 1296.53 173.586L1296.51 173.632Z" fill="#63B4FF"/>
<path opacity="0.1" d="M613.705 241.178V307.581H529.75C529.75 307.195 529.809 306.799 529.833 306.412C529.908 305.352 529.983 304.293 530.066 303.243C530.157 302.009 530.257 300.765 530.365 299.558C530.472 298.352 530.589 296.878 530.713 295.542C530.838 294.207 530.954 292.853 531.095 291.517C531.236 290.181 531.36 288.846 531.51 287.519C531.659 286.193 531.792 284.848 531.95 283.522C532.074 282.416 532.207 281.32 532.34 280.215C532.53 278.658 532.73 277.092 532.945 275.545C532.945 275.315 533.003 275.075 533.037 274.854C534.551 263.526 536.615 252.296 539.219 241.215L613.705 241.178Z" fill="#63B4FF"/>
<path opacity="0.1" d="M529.485 311.524H613.705V438.943H535.651C535.443 440.251 535.244 441.568 535.028 442.885H613.705V545.646C613.564 545.6 613.439 545.545 613.306 545.489C611.082 544.513 608.875 543.481 606.668 542.376L605.257 541.667C603.044 540.506 600.831 539.278 598.618 537.982C597.847 537.531 597.075 537.061 596.311 536.582C584.026 528.943 572.866 519.264 563.218 507.88C562.936 507.576 562.67 507.253 562.388 506.959C561.044 505.337 559.724 503.698 558.446 502.021L557.035 500.179C555.525 498.125 554.065 496.016 552.646 493.879C552.438 493.565 552.239 493.252 552.023 492.958C546.252 484.075 541.46 474.458 537.75 464.311C537.634 464.007 537.534 463.675 537.426 463.39C536.287 460.135 535.277 456.85 534.398 453.533C534.016 452.143 533.651 450.77 533.335 449.324C533.219 448.9 533.12 448.486 533.028 448.071C528.315 427.65 527.759 406.436 527.759 385.37C527.759 382.911 527.759 380.442 527.759 378.001C527.759 369.481 527.85 360.905 527.983 352.339C527.983 350.119 528.066 347.908 528.107 345.679C528.224 340.023 528.39 334.368 528.605 328.712C528.655 327.137 528.721 325.571 528.796 324.005C528.796 323.102 528.838 322.2 528.921 321.297C529.12 318.018 529.286 314.766 529.485 311.524Z" fill="#63B4FF"/>
<path opacity="0.1" d="M697.136 192.773V307.581H633.812V192.773H642.84V153.901H679.901V192.773H697.136Z" fill="#63B4FF"/>
<path opacity="0.1" d="M697.136 311.515H633.82V438.934H697.136V311.515Z" fill="#63B4FF"/>
<path opacity="0.1" d="M633.812 442.885H697.136V548.814C689.667 551.197 682.055 552.991 674.357 554.185L672.465 554.442C671.536 554.562 670.615 554.664 669.702 554.765C668.789 554.866 667.843 554.94 666.922 555.004H666.632C666.233 555.004 665.802 555.06 665.412 555.069H664.989C664.491 555.069 663.993 555.124 663.495 555.143C662.789 555.189 662.084 555.198 661.362 555.207C661.055 555.207 660.765 555.207 660.458 555.207C659.744 555.207 659.039 555.207 658.325 555.207H656.757C656.333 555.207 655.927 555.207 655.487 555.207L653.885 555.143C653.056 555.143 652.159 555.041 651.296 554.977L649.703 554.848L647.72 554.645C646.326 554.507 644.94 554.332 643.57 554.12L641.911 553.862L641.081 553.733C639.695 553.494 638.326 553.236 636.932 552.941C635.911 552.748 634.899 552.508 633.87 552.278L633.812 442.885Z" fill="#63B4FF"/>
<path opacity="0.1" d="M1092.98 179.214H1040.76V307.572H1092.98V179.214Z" fill="#63B4FF"/>
<path opacity="0.1" d="M1092.98 311.515V438.943H833.818V383.979H971.861V416.403H1040.76V311.515H1092.98Z" fill="#63B4FF"/>
<path opacity="0.1" d="M1093.81 579.506H1092.98V663.098C1083.63 662.22 1074.3 661.026 1065.01 659.515C1023.17 652.715 982.376 639.503 943.805 620.257C932.668 614.693 921.759 608.62 911.076 602.037C893.231 591.063 876.135 578.653 859.925 564.906C855.853 561.443 851.834 557.9 847.867 554.277C845.121 551.762 842.391 549.183 839.627 546.677C837.71 544.955 835.777 543.26 833.818 541.639V442.885H1040.07C1039.93 442.296 1039.79 441.706 1039.64 441.126C1039.8 441.706 1039.95 442.296 1040.09 442.885H1092.98V579.451C1093.26 579.46 1093.53 579.488 1093.81 579.506Z" fill="#63B4FF"/>
<path opacity="0.1" d="M1229.15 169.652H1195.13V157.917H1210.38V122.961C1211.7 123.495 1213.02 124.045 1214.33 124.61V157.917H1229.15V169.652Z" fill="#63B4FF"/>
<path opacity="0.1" d="M1311.12 307.581H1144.09C1144.09 307.581 1144.09 307.581 1144.15 307.628L1144.08 307.581H1113.09V179.223H1121.87V274.099H1161.99V217.91H1195.14V173.595H1229.16V217.947H1262.3V274.135H1311.12V307.581Z" fill="#63B4FF"/>
<path opacity="0.1" d="M1113.09 311.515V438.943H1311.12V311.515H1113.09ZM1364.88 588.939L1365.15 488.076H1311.12V442.941H1113.09V664.471C1129.33 665.228 1145.59 665.013 1161.8 663.826V663.826H1162.08C1169.83 663.285 1177.54 662.499 1185.21 661.468H1185.39C1226.32 656.179 1266.35 644.324 1304.22 626.272" fill="#63B4FF"/>
<path opacity="0.1" d="M1388.77 442.885H1434.97C1434.56 468.76 1429.88 494.173 1419.64 517.644C1411.12 537.144 1399.28 554.194 1385.28 569.088V488.03H1388.77V442.885Z" fill="#63B4FF"/>
<path opacity="0.1" d="M1434.99 438.943H1388.77V332.452H1413.78C1426.73 366.027 1434.95 402.872 1434.99 438.943Z" fill="#63B4FF"/>
<path opacity="0.1" d="M1092.98 214.898H1065.01V255.142H1092.98V214.898Z" fill="#63B4FF"/>
<path opacity="0.1" d="M1092.98 298.315H1065.01V307.581H1092.98V298.315Z" fill="#63B4FF"/>
<path opacity="0.1" d="M1092.98 311.515H1065.01V338.55H1092.98V311.515Z" fill="#63B4FF"/>
<path opacity="0.1" d="M1092.98 381.732H1065.01V421.976H1092.98V381.732Z" fill="#63B4FF"/>
<path opacity="0.1" d="M1092.98 465.149H1065.01V505.393H1092.98V465.149Z" fill="#63B4FF"/>
<path opacity="0.1" d="M1092.98 579.451C1093.26 579.451 1093.53 579.451 1093.81 579.506H1092.98V588.856H1065.01V548.566H1092.98V579.451Z" fill="#63B4FF"/>
<path opacity="0.1" d="M1092.98 631.964V663.052C1083.63 662.174 1074.3 660.98 1065.01 659.469V631.964H1092.98Z" fill="#63B4FF"/>
<path opacity="0.1" d="M953.704 435.986H833.818V438.943H953.704V435.986Z" fill="#63B4FF"/>
<path opacity="0.1" d="M953.704 442.876H833.818V454.206H953.704V442.876Z" fill="#63B4FF"/>
<path opacity="0.1" d="M953.704 491.346H833.818V509.565H953.704V491.346Z" fill="#63B4FF"/>
<path opacity="0.1" d="M953.696 546.705V564.925H859.925C855.853 561.474 851.831 557.93 847.859 554.295C845.112 551.78 842.39 549.201 839.619 546.705H953.696Z" fill="#63B4FF"/>
<path opacity="0.1" d="M953.696 602.055V620.257H943.796C932.671 614.687 921.764 608.611 911.076 602.028L953.696 602.055Z" fill="#63B4FF"/>
<path opacity="0.1" d="M1185.41 323.867H1161.81V350.064H1185.41V323.867Z" fill="#63B4FF"/>
<path opacity="0.1" d="M674.415 201.809H650.815V228.006H674.415V201.809Z" fill="#63B4FF"/>
<path opacity="0.1" d="M674.415 262.658H650.815V288.855H674.415V262.658Z" fill="#63B4FF"/>
<path opacity="0.1" d="M674.415 323.508H650.815V349.704H674.415V323.508Z" fill="#63B4FF"/>
<path opacity="0.1" d="M674.415 384.348H650.815V410.545H674.415V384.348Z" fill="#63B4FF"/>
<path opacity="0.1" d="M674.415 445.197H650.815V471.394H674.415V445.197Z" fill="#63B4FF"/>
<path opacity="0.1" d="M674.415 506.047H650.815V532.243H674.415V506.047Z" fill="#63B4FF"/>
<path opacity="0.1" d="M1275.51 323.867H1251.91V350.064H1275.51V323.867Z" fill="#63B4FF"/>
<path opacity="0.1" d="M1185.41 388.484H1161.81V414.68H1185.41V388.484Z" fill="#63B4FF"/>
<path opacity="0.1" d="M1275.51 388.484H1251.91V414.68H1275.51V388.484Z" fill="#63B4FF"/>
<path opacity="0.1" d="M1185.41 453.091H1161.81V479.288H1185.41V453.091Z" fill="#63B4FF"/>
<path opacity="0.1" d="M1275.51 453.091H1251.91V479.288H1275.51V453.091Z" fill="#63B4FF"/>
<path opacity="0.1" d="M1185.41 517.708H1161.81V543.905H1185.41V517.708Z" fill="#63B4FF"/>
<path opacity="0.1" d="M1275.51 517.708H1251.91V543.905H1275.51V517.708Z" fill="#63B4FF"/>
<path opacity="0.1" d="M1185.41 582.325H1161.81V608.522H1185.41V582.325Z" fill="#63B4FF"/>
<path opacity="0.1" d="M1275.51 582.325H1251.91V608.522H1275.51V582.325Z" fill="#63B4FF"/>
<path opacity="0.1" d="M1161.81 663.826V646.932H1185.4V661.422L1161.81 663.826Z" fill="#63B4FF"/>
<path opacity="0.1" d="M532.937 274.836V289.822H613.705V274.836H532.937ZM540.986 288.883H534.398V275.757H541.036L540.986 288.883ZM549.027 288.883H542.389V275.757H549.027V288.883ZM557.052 288.883H550.413V275.757H557.052V288.883ZM565.093 288.883H558.463V275.757H565.101L565.093 288.883ZM573.126 288.883H566.487V275.757H573.126V288.883ZM581.167 288.883H574.528V275.757H581.167V288.883ZM589.208 288.883H582.569V275.757H589.208V288.883ZM597.241 288.883H590.602V275.757H597.241V288.883ZM605.274 288.883H598.635V275.757H605.274V288.883ZM613.306 288.883H606.668V275.757H613.306V288.883Z" fill="#63B4FF"/>
<path opacity="0.1" d="M532.937 318.442V333.428H613.705V318.442H532.937ZM540.986 332.479H534.398V319.39H541.036L540.986 332.479ZM549.027 332.479H542.389V319.39H549.027V332.479ZM557.052 332.479H550.413V319.39H557.052V332.479ZM565.093 332.479H558.463V319.39H565.101L565.093 332.479ZM573.126 332.479H566.487V319.39H573.126V332.479ZM581.167 332.479H574.528V319.39H581.167V332.479ZM589.208 332.479H582.569V319.39H589.208V332.479ZM597.241 332.479H590.602V319.39H597.241V332.479ZM605.274 332.479H598.635V319.39H605.274V332.479ZM613.306 332.479H606.668V319.39H613.306V332.479Z" fill="#63B4FF"/>
<path opacity="0.1" d="M532.937 362.066V377.08H613.705V362.066H532.937ZM540.986 376.104H534.398V363.005H541.036L540.986 376.104ZM549.027 376.104H542.389V363.005H549.027V376.104ZM557.052 376.104H550.413V363.005H557.052V376.104ZM565.093 376.104H558.463V363.005H565.101L565.093 376.104ZM573.126 376.104H566.487V363.005H573.126V376.104ZM581.167 376.104H574.528V363.005H581.167V376.104ZM589.208 376.104H582.569V363.005H589.208V376.104ZM597.241 376.104H590.602V363.005H597.241V376.104ZM605.274 376.104H598.635V363.005H605.274V376.104ZM613.306 376.104H606.668V363.005H613.306V376.104Z" fill="#63B4FF"/>
<path opacity="0.1" d="M532.937 405.69V420.659H613.705V405.69H532.937ZM540.986 419.728H534.398V406.621H541.036L540.986 419.728ZM549.027 419.728H542.389V406.621H549.027V419.728ZM557.052 419.728H550.413V406.621H557.052V419.728ZM565.093 419.728H558.463V406.621H565.101L565.093 419.728ZM573.126 419.728H566.487V406.621H573.126V419.728ZM581.167 419.728H574.528V406.621H581.167V419.728ZM589.208 419.728H582.569V406.621H589.208V419.728ZM597.241 419.728H590.602V406.621H597.241V419.728ZM605.274 419.728H598.635V406.621H605.274V419.728ZM613.306 419.728H606.668V406.621H613.306V419.728Z" fill="#63B4FF"/>
<path opacity="0.1" d="M533.286 449.305C533.609 450.715 533.974 452.124 534.356 453.515V450.245H540.995V463.343H537.443C537.551 463.647 537.659 463.979 537.767 464.265H613.705V449.305H533.286ZM549.052 463.343H542.414V450.245H549.052V463.343ZM557.077 463.343H550.438V450.245H557.077V463.343ZM565.118 463.343H558.463V450.245H565.101L565.118 463.343ZM573.151 463.343H566.512V450.245H573.151V463.343ZM581.192 463.343H574.553V450.245H581.192V463.343ZM589.233 463.343H582.594V450.245H589.233V463.343ZM597.266 463.343H590.627V450.245H597.266V463.343ZM605.299 463.343H598.66V450.245H605.299V463.343ZM613.331 463.343H606.693V450.245H613.331V463.343Z" fill="#63B4FF"/>
<path opacity="0.1" d="M552.04 492.93C552.247 493.225 552.446 493.556 552.662 493.851H557.052V500.142C557.525 500.769 557.99 501.395 558.471 501.985V493.814H565.11V506.959H562.421C562.687 507.263 562.944 507.585 563.251 507.88H613.73V492.93H552.04ZM573.126 506.959H566.487V493.869H573.126V506.959ZM581.167 506.959H574.528V493.869H581.167V506.959ZM589.208 506.959H582.569V493.869H589.208V506.959ZM597.241 506.959H590.602V493.869H597.241V506.959ZM605.274 506.959H598.635V493.869H605.274V506.959ZM613.306 506.959H606.668V493.869H613.306V506.959Z" fill="#63B4FF"/>
<path opacity="0.1" d="M596.345 536.545C597.1 537.024 597.872 537.466 598.652 537.945V537.485H605.29V541.63L606.701 542.357V537.485H613.34V545.452C613.467 545.523 613.6 545.578 613.738 545.618V536.545H596.345Z" fill="#63B4FF"/>
<path opacity="0.1" d="M1144.09 307.581H1144.14H1144.09ZM1092.98 579.442H1093.81H1092.98ZM1039.64 441.117C1039.8 441.706 1039.93 442.296 1040.08 442.876C1039.95 442.296 1039.81 441.706 1039.64 441.117ZM1144.09 307.554H1144.14H1144.09ZM642.873 169.625V173.558H679.942V169.625H642.873ZM1092.98 579.442H1093.81H1092.98ZM1039.64 441.117C1039.8 441.706 1039.93 442.296 1040.08 442.876C1039.95 442.296 1039.81 441.706 1039.64 441.117ZM1144.09 307.554H1144.14H1144.09ZM1092.98 579.414H1093.81H1092.98ZM1039.64 441.117C1039.8 441.706 1039.93 442.296 1040.08 442.876C1039.95 442.296 1039.81 441.706 1039.64 441.117Z" fill="#63B4FF"/>
<path d="M892.886 700.201C892.919 700.644 892.88 701.091 892.77 701.518C892.77 701.518 864.373 706.778 858.564 701.518C856.926 699.982 855.017 698.842 852.959 698.173C850.901 697.503 848.74 697.319 846.614 697.631C846.614 697.631 835.627 697.963 833.793 693.947C833.03 692.261 833.229 688.991 833.702 685.767C834.185 682.746 834.828 679.76 835.627 676.823L836.067 676.436L838.681 674.106L869.285 673.102H869.518C869.368 680.047 879.907 688.015 879.907 688.015C891.102 692.62 892.753 697.825 892.886 700.201Z" fill="white"/>
<g opacity="0.1">
<path opacity="0.1" d="M850.332 200.39C849.311 201.367 848 202.067 847.32 203.366C846.739 204.48 846.722 205.853 846.257 207.05C845.793 208.248 844.44 209.224 843.502 208.469C843.287 200.179 839.602 192.395 835.08 185.763C833.815 183.761 832.278 181.99 830.524 180.513C828.748 179.03 826.537 178.337 824.325 178.569C821.835 178.947 819.645 180.826 817.13 181.056C813.811 181.369 810.832 178.818 807.537 178.689C806.199 178.703 804.878 179.036 803.665 179.663C802.451 180.291 801.372 181.199 800.5 182.327C798.768 184.595 797.482 187.24 796.725 190.092C795.421 194.42 794.71 198.941 794.617 203.504C794.567 206.074 794.351 209.279 792.21 210.237C792.26 210.918 792.26 211.602 792.21 212.282C794.368 211.361 794.584 208.119 794.634 205.539C794.726 200.977 795.437 196.456 796.741 192.128C797.499 189.273 798.785 186.625 800.517 184.354C801.39 183.229 802.47 182.323 803.683 181.697C804.897 181.071 806.216 180.74 807.554 180.724C810.873 180.853 813.861 183.396 817.147 183.092C819.636 182.861 821.844 180.973 824.342 180.605C826.554 180.373 828.764 181.066 830.54 182.548C832.295 184.026 833.832 185.797 835.096 187.799C839.619 194.421 843.303 202.187 843.519 210.495C844.457 211.26 845.809 210.265 846.274 209.086C846.739 207.907 846.755 206.525 847.336 205.401C848.017 204.102 849.328 203.412 850.349 202.435C852.938 199.957 853.585 195.785 853.485 191.999C853.485 191.879 853.485 191.759 853.485 191.649C853.328 194.928 852.539 198.272 850.332 200.39Z" fill="#FF0000"/>
<path opacity="0.1" d="M789.074 199.736C787.165 197.406 784.559 195.849 782.808 193.381C781.334 191.195 780.492 188.565 780.394 185.837C780.132 189.246 780.99 192.645 782.808 195.407C784.559 197.885 787.165 199.442 789.074 201.772C790.906 204.052 792.006 206.941 792.202 209.988C792.329 208.134 792.118 206.27 791.58 204.508C791.042 202.747 790.19 201.124 789.074 199.736V199.736Z" fill="#FF0000"/>
<path opacity="0.1" d="M855.104 171.928C854.614 174.184 853.743 176.331 853.344 178.606C853.108 180.126 853.022 181.67 853.087 183.211C853.115 182.334 853.201 181.459 853.344 180.595C853.743 178.311 854.614 176.174 855.104 173.917C855.389 172.673 855.482 171.383 855.377 170.104C855.326 170.718 855.234 171.328 855.104 171.928V171.928Z" fill="#FF0000"/>
</g>
<path d="M1347.56 434.512C1347.56 434.512 1333.86 358.851 1339.1 349.437C1339.1 349.437 1339.3 340.687 1338.98 329.532C1338.98 329.108 1338.98 328.684 1338.98 328.251C1339.9 328.934 1340.86 329.55 1341.86 330.094C1346.69 332.849 1352.24 333.644 1357.54 332.341L1353.39 327.211C1352.4 325.985 1351.36 324.659 1351.15 323.038C1350.93 321.417 1351.53 319.971 1352.04 318.524C1355.98 307.471 1356.19 293.571 1348.6 285.134C1342.18 278.041 1340.62 268.885 1333.66 262.41C1328.57 257.666 1325.78 250.711 1323.14 243.987C1320.91 238.304 1318.66 232.574 1317.38 226.55C1316.38 221.843 1315.99 216.971 1314.62 212.374C1313.25 207.778 1310.68 203.31 1306.67 201.256C1305.25 200.529 1303.66 200.114 1302.36 199.147C1300.65 197.866 1299.62 195.785 1298.38 193.961C1292.1 184.75 1271.07 190.175 1261.11 193.915C1258.4 194.857 1255.89 196.398 1253.74 198.447L1253.83 198.281C1253.91 198.143 1254 198.005 1254.08 197.866C1252.99 198.845 1252.05 200.011 1251.29 201.321C1249.84 203.872 1249.23 206.847 1248.02 209.611C1246.56 212.881 1238.44 222.009 1241.93 225.684C1242.18 225.931 1242.46 226.131 1242.76 226.274C1244.07 226.88 1245.52 227.04 1246.91 226.734L1246.76 227.131C1245.57 230.373 1244.96 233.843 1244.96 237.346C1244.96 252.48 1256.2 264.749 1270.09 264.749C1272.7 264.752 1275.29 264.308 1277.78 263.432C1277.84 263.782 1277.89 264.132 1277.95 264.482C1277.95 264.62 1277.99 264.758 1278 264.897L1277.56 265.578C1277.54 265.536 1277.52 265.496 1277.49 265.459L1264.46 285.668C1262.47 287.225 1251 296.436 1250.35 303.344C1249.67 310.907 1248.99 319.759 1248.99 319.759L1248.9 321.656C1248.33 322.184 1247.67 322.569 1246.95 322.784C1246.23 322.998 1245.48 323.038 1244.75 322.9C1240.69 322.163 1240.69 339.48 1240.69 339.48C1240.69 339.48 1237.98 342.243 1236.12 339.848C1234.26 337.453 1229.35 345.569 1229.35 345.569L1198.56 347.042L1197.86 347.088L1196.2 341.387C1196.02 340.785 1195.63 340.286 1195.13 339.998C1194.62 339.71 1194.03 339.656 1193.49 339.848C1193.36 339.895 1193.23 339.954 1193.11 340.023L1193 340.097L1192.78 340.263L1192.67 340.373C1192.61 340.433 1192.56 340.498 1192.51 340.567L1192.41 340.696L1192.36 340.751C1192.16 341.045 1192.04 341.385 1191.99 341.743C1191.93 342.102 1191.96 342.469 1192.06 342.814L1193.49 347.706C1187.54 349.032 1181.47 352.772 1186.42 363.07L1161.31 357.921L1169.44 365.492L1211.38 375.1C1210.82 376.205 1211.19 377.808 1212.92 380.065C1220.39 389.801 1234 392.445 1239.47 393.126C1240.92 396.718 1242.73 400.117 1244.86 403.259L1244.39 412.958C1244.39 412.958 1230.52 486.887 1227.98 490.636C1229.26 489.024 1230.44 487.309 1231.49 485.506C1227.47 500.695 1221.84 521.485 1220.36 524.598C1217.99 529.572 1215.79 549.699 1218.5 550.988C1219.33 551.384 1221.7 551.191 1225.09 550.905V552.573L1224.94 615.752C1224.94 615.752 1225.62 654.504 1223.75 658.198C1221.88 661.892 1221.38 669.638 1221.38 669.638C1221.38 669.638 1213.92 684.92 1208 691.063C1207.96 691.111 1207.91 691.154 1207.87 691.192L1207.68 689.756C1207.68 689.756 1200.57 699.722 1184.84 699.16C1184.84 699.16 1175.37 705.995 1189.41 706.363C1203.45 706.732 1221.38 705.811 1221.38 705.811C1221.38 705.811 1233.91 684.625 1244.4 687.388V703.443H1247.61V687.13C1249.1 686.042 1250.37 684.629 1251.35 682.978C1252.34 681.326 1253.01 679.471 1253.32 677.523C1253.6 675.515 1253.4 673.463 1252.74 671.568C1252.08 669.674 1250.99 668.002 1249.57 666.718C1248.94 666.079 1248.43 665.301 1248.07 664.432C1247.72 663.564 1247.53 662.623 1247.52 661.67L1247.41 661.781C1247.41 661.459 1247.33 661.127 1247.3 660.786C1246.38 652.496 1245.23 635.391 1249.3 622.735C1254.88 605.381 1256.58 581.21 1252.51 566.822C1251.2 562.223 1250.12 557.546 1249.28 552.812C1249.18 552.213 1249.09 551.642 1249.01 551.108C1251.79 551.525 1254.54 552.141 1257.25 552.95C1266.67 555.833 1287.27 556.368 1304.87 556.211C1304.91 556.745 1304.96 557.307 1305.01 557.869C1305.33 561.775 1305.98 565.637 1306.97 569.402C1309.18 576.771 1310.19 609.259 1310.19 609.259C1310.19 609.259 1313.04 635.971 1311.49 646.84C1310.66 652.883 1309.83 658.953 1309.35 665.051V665.171C1309.35 665.171 1304.69 679.909 1301.28 687.913C1301.2 688.116 1301.11 688.319 1301.02 688.512C1300.11 688.604 1299.22 688.824 1298.36 689.166C1298.36 689.166 1293.79 699.298 1289.23 700.975C1284.68 702.651 1286.19 708.169 1296.5 706.142C1306.82 704.116 1322.39 702.458 1322.39 702.458L1323.06 692.123L1326.23 687.72L1325.4 698.027L1328.78 697.29L1328.33 684.754L1333.52 677.551C1333.52 677.551 1339.78 671.361 1330.47 659.183V659.451C1330.37 659.276 1330.28 659.091 1330.18 658.916V658.861C1328.63 656.208 1327.4 651.262 1329.65 642.483C1333.72 626.622 1336.08 612.225 1336.08 612.225C1336.08 612.225 1345.16 573.657 1334.25 555.41H1334.73C1333.61 552.842 1332.82 550.114 1332.38 547.304C1332.33 546.972 1332.28 546.631 1332.23 546.281C1340.31 545.766 1348.23 544.144 1354.7 540.644C1354.67 540.607 1350.78 449.084 1347.56 434.512ZM1245.05 370.678V370.863L1243.39 370.955L1245.05 370.678ZM1239.36 371.553C1239.09 371.621 1238.83 371.756 1238.61 371.95C1237.9 373.07 1237.45 374.372 1237.31 375.735L1234.72 375.091C1234.72 375.091 1232.9 374.658 1230.29 374.169L1229.05 372.788C1232.45 372.475 1235.99 372.014 1239.36 371.553V371.553Z" fill="url(#paint0_linear)"/>
<path d="M1325.02 684.883L1324.03 697.935L1327.35 697.198L1326.85 683.041L1325.02 684.883Z" fill="#1D2366"/>
<path d="M1249.48 622.91C1245.49 635.529 1246.62 652.561 1247.52 660.832C1247.85 663.89 1248.15 665.751 1248.15 665.751C1248.15 665.751 1242.19 680.839 1241.69 681.41C1241.19 681.981 1224.13 693.541 1224.13 693.541L1212.21 701.27C1212.21 701.27 1200.11 695.384 1205.91 693.357C1207.09 692.829 1208.16 692.021 1209.04 690.99C1214.84 684.864 1222.14 669.638 1222.14 669.638C1222.14 669.638 1222.64 661.91 1224.46 658.235C1226.29 654.559 1225.62 615.937 1225.62 615.937L1225.77 552.978V544.771L1248.46 544.955C1248.6 547.741 1248.93 550.512 1249.44 553.245C1250.26 557.963 1251.31 562.625 1252.6 567.209C1256.6 581.57 1254.94 605.62 1249.48 622.91Z" fill="#FFB0B1"/>
<path opacity="0.1" d="M1248.15 665.751C1248.15 665.751 1242.19 680.839 1241.69 681.41C1241.19 681.981 1224.13 693.541 1224.13 693.541L1212.21 701.27C1212.21 701.27 1200.11 695.384 1205.91 693.357C1207.09 692.829 1208.16 692.021 1209.04 690.99L1209.55 695.015L1213.53 694.831L1247.55 660.851C1247.85 663.89 1248.15 665.751 1248.15 665.751Z" fill="#FF0000"/>
<path d="M1247.74 661.707L1213.53 695.918L1209.55 696.102L1208.72 689.654C1208.72 689.654 1201.77 699.584 1186.32 699.031C1186.32 699.031 1177.04 705.838 1190.79 706.207C1204.54 706.575 1222.1 705.654 1222.1 705.654C1222.1 705.654 1234.36 684.468 1244.63 687.232V703.232H1247.78V687.084C1249.25 685.989 1250.5 684.575 1251.46 682.929C1252.42 681.283 1253.07 679.438 1253.37 677.505C1253.65 675.513 1253.45 673.478 1252.81 671.594C1252.17 669.709 1251.11 668.04 1249.71 666.746C1249.09 666.1 1248.6 665.319 1248.26 664.453C1247.92 663.586 1247.74 662.652 1247.74 661.707V661.707Z" fill="#1D2366"/>
<path d="M1328.18 642.585C1325.97 651.335 1327.17 656.263 1328.68 658.907V658.962C1330.62 662.226 1331.97 665.877 1332.65 669.712L1332.78 670.541L1317.21 695.734L1308.77 699.418C1308.77 699.418 1295.18 694.269 1297.66 692.795C1298.28 692.436 1299.26 690.52 1300.37 687.876C1303.69 679.909 1308.27 665.208 1308.27 665.208V665.088C1308.75 659.018 1309.51 652.966 1310.36 646.942C1311.88 636.1 1309.09 609.489 1309.09 609.489C1309.09 609.489 1308.09 577.13 1305.94 569.77C1304.96 566.028 1304.31 562.191 1304 558.311C1303.55 553.706 1303.45 549.911 1303.45 549.911C1303.45 549.911 1312.4 536.094 1328.8 551.016C1330.11 552.206 1331.26 553.595 1332.23 555.143C1343.55 573.031 1334.43 612.436 1334.43 612.436C1334.43 612.436 1332.15 626.769 1328.18 642.585Z" fill="#FFB0B1"/>
<path opacity="0.1" d="M1332.81 670.541L1317.24 695.734L1308.79 699.418C1308.79 699.418 1295.21 694.269 1297.69 692.795C1298.31 692.436 1299.28 690.52 1300.39 687.876C1306.14 687.821 1309.12 693.901 1309.12 693.901L1316.41 692.611C1316.41 692.611 1326.02 671.646 1328.18 670.366C1330.33 669.086 1328.51 660.795 1328.51 660.795V658.686C1328.57 658.76 1328.62 658.843 1328.68 658.916V658.972C1330.62 662.236 1331.97 665.886 1332.65 669.721L1332.81 670.541Z" fill="#FF0000"/>
<path d="M1309.62 694.444C1309.62 694.444 1305.47 685.988 1297.52 689.111C1297.52 689.111 1293.05 699.243 1288.58 700.883C1284.1 702.522 1285.6 708.049 1295.7 706.032C1305.81 704.014 1321.05 702.347 1321.05 702.347L1321.71 692.04L1331.98 677.514C1331.98 677.514 1338.11 671.351 1329 659.22V661.33C1329 661.33 1330.82 669.62 1328.67 670.9C1326.51 672.18 1316.93 693.154 1316.93 693.154L1309.62 694.444Z" fill="#1D2366"/>
<path opacity="0.1" d="M1248.49 544.936C1248.63 547.723 1248.96 550.494 1249.47 553.227C1240.12 551.707 1231.45 552.462 1225.77 552.96V544.752L1248.49 544.936Z" fill="#FF0000"/>
<path opacity="0.1" d="M1333.15 557.436C1333.15 557.436 1319.87 558.155 1304.04 558.302C1303.59 553.696 1303.49 549.901 1303.49 549.901C1303.49 549.901 1312.43 536.084 1328.83 551.007C1330.14 552.197 1331.3 553.586 1332.26 555.133C1332.52 555.919 1332.81 556.687 1333.15 557.436V557.436Z" fill="#FF0000"/>
<path d="M1333.15 555.778C1333.15 555.778 1274.99 558.901 1257.27 553.383C1239.54 547.866 1221.97 552.646 1219.33 551.366C1216.68 550.086 1218.83 530.033 1221.15 525.068C1223.48 520.103 1236.22 469.893 1236.22 469.893L1248.49 398.911L1261.41 394.959L1262.32 394.674L1284.83 387.784L1301.33 382.727C1301.33 382.727 1334.13 524.884 1331.32 535.366C1330.3 539.38 1330.13 543.603 1330.84 547.7C1331.27 550.498 1332.05 553.216 1333.15 555.778V555.778Z" fill="#1D2366"/>
<path d="M1205.73 350.368C1205.73 350.368 1194.12 364.184 1202.91 371.885C1211.71 379.586 1217.49 372.622 1217.49 372.622L1205.73 350.368Z" fill="#C7DAF5"/>
<path opacity="0.1" d="M1205.73 350.368C1205.73 350.368 1194.12 364.184 1202.91 371.885C1211.71 379.586 1217.49 372.622 1217.49 372.622L1205.73 350.368Z" fill="#FF0000"/>
<path d="M1299.6 259.526C1299.6 259.526 1298.24 260.963 1296.19 263.082C1293.26 266.112 1288.94 270.543 1285.11 274.255C1279.8 279.386 1275.41 283.153 1276.98 279.939C1278.55 276.724 1278.25 271.123 1277.47 265.882C1277.41 265.532 1277.36 265.182 1277.31 264.841C1276.66 260.992 1275.8 257.19 1274.74 253.456C1274.74 253.456 1283.32 241.15 1288.07 236.296C1289.84 234.454 1291.07 233.698 1291.15 234.979C1291.23 236.701 1292.39 240.505 1293.84 244.54C1293.88 244.669 1293.92 244.788 1293.97 244.917C1294.93 247.681 1296.02 250.518 1296.97 252.968C1298.43 256.726 1299.6 259.526 1299.6 259.526Z" fill="#FFB0B1"/>
<path opacity="0.1" d="M1293.97 244.917C1293.16 249.732 1291.21 254.217 1288.3 257.905C1285.4 261.593 1281.66 264.348 1277.47 265.882C1276.81 261.677 1275.9 257.526 1274.74 253.456C1274.74 253.456 1290.9 230.29 1291.15 234.979C1291.21 236.756 1292.47 240.699 1293.97 244.917Z" fill="#FF0000"/>
<path opacity="0.1" d="M1275.86 272.072L1277.95 268.802C1277.95 268.802 1279.34 278.179 1284.43 274.043C1289.53 269.908 1289.78 305.168 1289.78 305.168L1284.31 395.926L1244.79 393.301L1245.91 349.447L1250.39 327.34L1261.45 295.202L1268.03 284.581L1275.86 272.072Z" fill="#FF0000"/>
<path d="M1289.78 305.73L1284.8 387.793L1284.28 396.488L1262.25 395.024L1261.42 394.968L1244.82 393.863L1245.94 349.999L1250.41 327.892L1261.47 295.754L1268.05 285.134L1275.89 272.579L1277.98 269.318C1277.98 269.318 1279.36 278.695 1284.46 274.559L1284.57 274.476C1289.55 270.976 1289.78 305.73 1289.78 305.73Z" fill="#1D2366"/>
<path d="M1250.97 320.21C1250.97 320.21 1248.98 324.816 1245 324.07C1241.02 323.323 1241.03 340.65 1241.03 340.65C1241.03 340.65 1238.38 343.413 1236.55 341.018C1234.73 338.623 1229.91 346.72 1229.91 346.72L1199.76 348.194C1199.76 348.194 1213.18 355.001 1210.55 375.597C1210.55 375.597 1256.1 372.465 1257.6 367.685C1259.09 362.904 1250.97 320.21 1250.97 320.21Z" fill="white"/>
<path opacity="0.03" d="M1250.97 320.21C1250.97 320.21 1248.98 324.816 1245 324.07C1241.02 323.323 1241.03 340.65 1241.03 340.65C1241.03 340.65 1238.38 343.413 1236.55 341.018C1234.73 338.623 1229.91 346.72 1229.91 346.72L1199.76 348.194C1199.76 348.194 1213.18 355.001 1210.55 375.597C1210.55 375.597 1256.1 372.465 1257.6 367.685C1259.09 362.904 1250.97 320.21 1250.97 320.21Z" fill="#FF0000"/>
<path d="M1163.33 359.017L1171.28 366.552L1236.72 381.815L1228.6 372.622L1163.33 359.017Z" fill="white"/>
<path d="M1275.99 274.974C1274.9 276.816 1271.79 286.248 1269.19 294.483C1267.02 301.345 1265.22 307.379 1265.22 307.379C1265.22 307.379 1260.99 337.905 1258.83 343.422C1256.68 348.94 1257.85 370.457 1257.85 370.457L1249.81 423.597C1249.81 423.597 1246.16 451 1240.54 467.369C1234.98 483.479 1228.8 491.032 1228.61 491.272C1231.1 487.532 1244.67 413.897 1244.67 413.897L1249.15 321.03C1249.15 321.03 1249.81 312.205 1250.47 304.661C1251.13 297.117 1264.58 286.819 1264.58 286.819L1277.54 266.361C1278.84 268.296 1277.97 271.667 1275.99 274.974Z" fill="white"/>
<path d="M1242.19 394.324C1242.19 394.324 1223.1 393.403 1213.86 381.078C1204.61 368.753 1235.23 376.159 1235.23 376.159L1243.18 378.186L1242.19 394.324Z" fill="#FFB0B1"/>
<path opacity="0.1" d="M1331.32 535.375C1330.3 539.389 1330.13 543.612 1330.84 547.709C1310.02 549.349 1287.75 543.103 1287.75 543.103C1283.6 547.341 1272.67 553.586 1272.67 553.586L1266.71 471.606C1262.9 460.552 1261.41 402.641 1261.41 402.641C1261.41 402.641 1261.75 399.611 1262.24 395.07C1262.24 394.959 1262.24 394.839 1262.28 394.729C1263.76 382.045 1266.71 358.234 1268.15 355.019C1270.15 350.598 1262.03 338.835 1262.03 338.835L1265.72 303.879L1266.17 299.66C1273.95 295.8 1279.92 283.476 1279.92 283.476L1284.5 274.568C1289.48 271.022 1289.74 305.776 1289.74 305.776L1284.76 387.839L1301.26 382.782C1301.26 382.782 1334.13 524.893 1331.32 535.375Z" fill="#FF0000"/>
<path d="M1352.69 541.04C1329.99 553.549 1288.74 541.961 1288.74 541.961C1284.59 546.198 1273.66 552.444 1273.66 552.444L1267.7 470.464C1263.9 459.41 1262.4 401.499 1262.4 401.499C1262.4 401.499 1267.2 358.289 1269.19 353.877C1269.77 352.588 1269.49 350.672 1268.8 348.608C1265.41 338.788 1264.17 328.217 1265.17 317.76L1266.76 302.736L1267.2 298.527C1274.99 294.658 1280.96 282.333 1280.96 282.333L1285.11 274.264L1292.74 259.398L1296.36 252.36L1296.97 252.977L1301.66 257.693C1301.66 257.693 1303.65 259.536 1306.64 262.299C1313.14 268.378 1324.37 279.082 1330.16 285.631C1335.25 291.397 1336.86 313.827 1337.33 330.711C1337.64 341.829 1337.45 350.543 1337.45 350.543C1332.32 359.929 1345.75 435.286 1345.75 435.286C1348.88 449.849 1352.69 541.04 1352.69 541.04Z" fill="white"/>
<path opacity="0.03" d="M1309.12 282.149C1309.12 282.149 1293.55 315.061 1295.36 327.57C1297.16 340.079 1302.31 354.236 1299.83 357.543C1298.98 358.796 1297.87 359.813 1296.61 360.514C1295.34 361.216 1293.95 361.583 1292.53 361.587C1290.04 361.771 1283.41 366.92 1283.41 367.473C1283.41 368.026 1277.27 368.026 1271.79 370.605C1266.3 373.184 1258.2 374.648 1258.2 374.648C1258.2 374.648 1242.44 374.096 1240.97 375.754C1239.5 377.412 1237.99 387.332 1241.13 395.245C1244.28 403.157 1247.77 409.062 1250.41 410.139C1253.05 411.217 1269.8 404.99 1283.38 403.516C1296.97 402.043 1311.71 390.096 1311.71 390.096C1311.71 390.096 1327.95 383.648 1330.8 372.806C1333.64 361.965 1327.32 302.377 1327.32 302.377C1327.32 302.377 1322.54 274.605 1309.12 282.149Z" fill="#FF0000"/>
<path opacity="0.03" d="M1307.13 279.386C1307.13 279.386 1291.55 312.307 1293.38 324.806C1295.21 337.306 1300.33 351.473 1297.85 354.789C1297 356.043 1295.9 357.061 1294.63 357.763C1293.37 358.465 1291.97 358.831 1290.56 358.833C1288.07 359.017 1281.43 364.166 1281.43 364.719C1281.43 365.271 1275.3 365.271 1269.81 367.841C1264.33 370.411 1256.23 371.885 1256.23 371.885C1256.23 371.885 1240.46 371.332 1239 372.99C1237.54 374.648 1236.01 384.578 1239.17 392.481C1242.32 400.385 1245.81 406.298 1248.44 407.376C1251.08 408.454 1267.83 402.227 1281.41 400.762C1295 399.298 1309.74 387.332 1309.74 387.332C1309.74 387.332 1325.98 380.884 1328.79 370.052C1331.6 359.22 1325.31 299.614 1325.31 299.614C1325.31 299.614 1320.55 271.851 1307.13 279.386Z" fill="#FF0000"/>
<path d="M1308.63 280.491C1308.63 280.491 1293.06 313.412 1294.88 325.912C1296.71 338.411 1301.84 352.578 1299.36 355.885C1298.51 357.142 1297.4 358.163 1296.14 358.866C1294.87 359.57 1293.48 359.937 1292.06 359.938C1289.57 360.122 1282.93 365.271 1282.93 365.815C1282.93 366.358 1276.81 366.368 1271.32 368.947C1265.82 371.526 1257.73 372.99 1257.73 372.99C1257.73 372.99 1241.96 372.438 1240.5 374.096C1239.03 375.754 1237.52 385.684 1240.66 393.587C1243.81 401.49 1247.3 407.404 1249.94 408.481C1252.58 409.559 1269.32 403.332 1282.91 401.858C1296.49 400.385 1311.24 388.438 1311.24 388.438C1311.24 388.438 1327.48 381.99 1330.32 371.148C1333.17 360.307 1326.89 300.719 1326.89 300.719C1326.89 300.719 1322.04 272.993 1308.63 280.491Z" fill="white"/>
<path opacity="0.1" d="M1308.29 368.79C1308.29 368.79 1295.85 366.027 1300.18 370.632C1304.51 375.238 1304.48 379.272 1309.79 379.088C1315.09 378.904 1308.29 368.79 1308.29 368.79Z" fill="#FF0000"/>
<path opacity="0.1" d="M1329.33 467.885C1329.33 467.885 1323.7 472.112 1334.47 481.858C1345.23 491.603 1329.33 467.885 1329.33 467.885Z" fill="#FF0000"/>
<path opacity="0.1" d="M1318.59 502.639C1318.59 503.191 1316.6 522.903 1324.05 527.831C1331.5 532.759 1318.59 502.639 1318.59 502.639Z" fill="#FF0000"/>
<path d="M1200.27 348.148C1194.27 348.378 1181.29 350.414 1188.02 364.35C1193.97 376.684 1203.97 368.44 1209.59 362.186C1208.22 356.354 1204.88 351.33 1200.27 348.148V348.148Z" fill="#FFB0B1"/>
<path d="M1209.67 362.075L1209.92 361.79L1209.67 362.075Z" fill="#FFB0B1"/>
<path opacity="0.1" d="M1306.64 262.861C1300.27 267.697 1294.92 271.777 1293.88 272.625C1291.02 274.974 1285.58 288.763 1282.07 295.8C1279.27 301.465 1270.19 302.921 1266.76 303.28L1267.2 299.07C1274.99 295.202 1280.96 282.877 1280.96 282.877L1296.36 252.904L1301.66 258.255C1301.66 258.255 1303.65 260.098 1306.64 262.861Z" fill="#FF0000"/>
<path d="M1306.64 262.308C1300.27 267.144 1294.92 271.225 1293.88 272.081C1291.02 274.421 1285.58 288.21 1282.07 295.248C1279.27 300.913 1270.19 302.368 1266.76 302.727L1267.2 298.518C1274.99 294.649 1280.96 282.324 1280.96 282.324L1296.36 252.351L1301.66 257.684C1301.66 257.684 1303.65 259.508 1306.64 262.308Z" fill="#DCE7FF"/>
<path d="M1294.38 238.838C1294.38 244.367 1292.87 249.767 1290.04 254.322C1286.71 259.707 1281.74 263.587 1276.05 265.257C1270.36 266.926 1264.32 266.276 1259.02 263.423C1253.72 260.57 1249.52 255.704 1247.18 249.708C1244.84 243.711 1244.51 236.982 1246.26 230.741C1248 224.499 1251.71 219.159 1256.7 215.69C1261.69 212.221 1267.63 210.851 1273.45 211.831C1279.27 212.811 1284.59 216.074 1288.42 221.029C1292.26 225.984 1294.38 232.303 1294.38 238.838V238.838Z" fill="#FFB0B1"/>
<path opacity="0.1" d="M1337.33 330.72C1333.96 328.419 1331.21 325.146 1329.39 321.251C1328 318.211 1327.08 314.702 1324.71 312.546C1322.58 310.612 1319.74 310.142 1317.08 309.276C1308.35 306.412 1301.03 297.569 1300.76 287.473C1300.62 282.72 1301.96 277.977 1301.36 273.27C1301.01 270.606 1300.06 268.084 1298.58 265.947C1297.85 264.924 1297.05 263.967 1296.19 263.082C1295.02 261.866 1293.8 260.687 1292.74 259.397C1292.07 258.599 1291.49 257.718 1291 256.772C1290.6 255.998 1290.28 255.18 1290.04 254.331C1288.38 248.694 1289.9 242.007 1288.07 236.305L1287.97 235.992C1287.28 233.965 1285.88 231.939 1283.93 231.782C1281.98 231.626 1280.31 233.422 1278.45 234.223C1274.56 235.9 1270.36 233.044 1267.12 230.133C1263.87 227.223 1260.21 223.897 1256.09 224.542C1253.36 224.975 1251.2 227.038 1248.69 228.107C1248.12 228.351 1247.53 228.539 1246.93 228.669C1249.06 222.778 1252.97 217.894 1257.99 214.856C1263.01 211.817 1268.83 210.814 1274.44 212.018C1280.05 213.223 1285.11 216.56 1288.75 221.456C1292.39 226.351 1294.38 232.501 1294.38 238.847C1294.38 240.764 1294.2 242.675 1293.84 244.549C1293.88 244.678 1293.92 244.798 1293.97 244.927C1294.93 247.69 1296.02 250.527 1296.97 252.977L1301.66 257.693C1301.66 257.693 1303.65 259.536 1306.64 262.299C1313.14 268.378 1324.37 279.082 1330.16 285.631C1335.25 291.416 1336.85 313.836 1337.33 330.72Z" fill="#FF0000"/>
<path d="M1248.4 211.278C1249.58 208.598 1250.17 205.595 1251.59 203.052C1253.67 199.368 1257.31 197.01 1261.04 195.582C1270.79 191.852 1291.4 186.435 1297.55 195.582C1298.77 197.424 1299.77 199.469 1301.45 200.74C1302.72 201.708 1304.27 202.122 1305.67 202.85C1309.6 204.895 1312.1 209.353 1313.44 213.903C1314.77 218.454 1315.17 223.336 1316.15 228.024C1317.4 234.039 1319.6 239.741 1321.79 245.406C1324.37 252.093 1327.11 259.029 1332.09 263.754C1338.89 270.202 1340.39 279.331 1346.7 286.405C1354.17 294.806 1353.93 308.668 1350.07 319.676C1349.57 321.122 1349 322.633 1349.2 324.171C1349.39 325.709 1350.42 327.109 1351.39 328.334L1355.48 333.447C1345.82 336.035 1334.89 330.435 1330.39 320.606C1329.01 317.566 1328.08 314.066 1325.71 311.902C1323.59 309.967 1320.73 309.507 1318.08 308.641C1309.35 305.767 1302.04 296.915 1301.76 286.819C1301.63 282.076 1302.97 277.332 1302.36 272.634C1302.02 269.952 1301.06 267.413 1299.58 265.265C1297.3 261.958 1293.85 259.738 1291.99 256.054C1288.85 249.892 1291.24 241.887 1288.97 235.273C1288.28 233.247 1286.88 231.22 1284.93 231.064C1282.98 230.907 1281.31 232.703 1279.45 233.505C1275.56 235.181 1271.37 232.335 1268.12 229.415C1264.88 226.495 1261.22 223.179 1257.08 223.833C1254.35 224.257 1252.2 226.32 1249.69 227.398C1247.83 228.19 1244.06 228.899 1242.44 227.158C1239 223.649 1246.96 214.557 1248.4 211.278Z" fill="#591D4B"/>
<path opacity="0.1" d="M1332.7 317.566C1331.3 314.527 1330.39 311.026 1328.02 308.871C1325.89 306.937 1323.04 306.467 1320.38 305.601C1311.66 302.736 1304.34 293.884 1304.06 283.789C1303.93 279.045 1305.26 274.292 1304.67 269.594C1304.32 266.93 1303.36 264.409 1301.89 262.271C1299.6 258.965 1296.15 256.745 1294.3 253.06C1291.16 246.907 1293.55 238.903 1291.27 232.28C1290.58 230.262 1289.18 228.236 1287.24 228.07C1285.3 227.904 1283.61 229.719 1281.75 230.52C1277.87 232.197 1273.66 229.341 1270.43 226.431C1267.19 223.52 1263.51 220.195 1259.39 220.839C1256.66 221.272 1254.5 223.336 1252 224.404C1250.14 225.196 1246.36 225.915 1244.74 224.174C1241.32 220.489 1249.27 211.416 1250.7 208.155C1251.89 205.466 1252.48 202.472 1253.91 199.93C1253.98 199.792 1254.06 199.653 1254.15 199.515C1253.08 200.497 1252.16 201.66 1251.42 202.96C1250 205.503 1249.41 208.487 1248.22 211.186C1246.79 214.447 1238.83 223.547 1242.25 227.204C1243.91 228.954 1247.65 228.236 1249.51 227.444C1252 226.366 1254.17 224.303 1256.9 223.879C1261.05 223.225 1264.7 226.55 1267.94 229.461C1271.17 232.372 1275.41 235.227 1279.27 233.551C1281.13 232.749 1282.76 230.944 1284.75 231.11C1286.74 231.276 1288.07 233.293 1288.79 235.319C1291.06 241.933 1288.67 249.938 1291.81 256.1C1293.67 259.72 1297.11 261.986 1299.4 265.311C1300.88 267.459 1301.84 269.998 1302.18 272.68C1302.78 277.378 1301.45 282.122 1301.58 286.865C1301.85 296.998 1309.17 305.813 1317.9 308.687C1320.53 309.553 1323.4 310.013 1325.53 311.948C1327.91 314.112 1328.85 317.612 1330.21 320.652C1334.71 330.481 1345.64 336.081 1355.29 333.493L1353.37 331.079C1345 331.217 1336.52 325.93 1332.7 317.566Z" fill="#FF0000"/>
<path opacity="0.1" d="M1275.49 275.526C1274.4 277.369 1271.29 286.801 1268.69 295.036C1266.26 293.986 1264.05 287.289 1264.05 287.289L1277.02 266.822C1278.34 268.848 1277.47 272.21 1275.49 275.526Z" fill="#FF0000"/>
<path d="M1275.99 274.974C1274.9 276.816 1271.79 286.248 1269.19 294.483C1266.76 293.442 1264.55 286.736 1264.55 286.736L1277.51 266.278C1278.84 268.296 1277.97 271.667 1275.99 274.974Z" fill="#DCE7FF"/>
<path d="M1200.62 369.076L1193.44 343.92C1193.35 343.625 1193.32 343.315 1193.34 343.007C1193.36 342.699 1193.44 342.398 1193.57 342.124C1193.7 341.849 1193.87 341.605 1194.09 341.406C1194.3 341.207 1194.55 341.056 1194.81 340.963V340.963C1195.35 340.778 1195.93 340.834 1196.42 341.121C1196.92 341.407 1197.3 341.9 1197.47 342.492L1204.65 367.62L1203.94 372.88L1200.62 369.076Z" fill="#BE8B87"/>
<path opacity="0.1" d="M1194.12 341.709C1194.65 341.521 1195.23 341.576 1195.73 341.863C1196.23 342.149 1196.61 342.644 1196.78 343.238L1203.97 368.366L1203.43 372.309L1203.95 372.917L1204.66 367.657L1197.44 342.529C1197.26 341.937 1196.89 341.444 1196.39 341.158C1195.89 340.871 1195.31 340.814 1194.78 341V341C1194.33 341.162 1193.94 341.486 1193.68 341.921C1193.82 341.837 1193.96 341.766 1194.12 341.709V341.709Z" fill="white"/>
<path d="M1200.62 369.076L1204.65 367.657L1204.07 371.968L1203.94 372.917L1202.76 371.553L1200.62 369.076Z" fill="#EFC8C4"/>
<path d="M1202.76 371.553C1202.83 371.455 1202.92 371.374 1203.02 371.314C1203.08 371.273 1203.15 371.251 1203.21 371.251C1203.28 371.251 1203.35 371.273 1203.41 371.314C1203.47 371.39 1203.51 371.473 1203.55 371.563C1203.61 371.664 1203.68 371.751 1203.77 371.816C1203.86 371.882 1203.96 371.924 1204.07 371.94L1203.94 372.861L1202.76 371.553Z" fill="#727A9C"/>
<path d="M1193.39 352.855C1193.39 352.855 1207.81 352.763 1204.41 359.57C1201.02 366.377 1195.72 367.197 1195.72 367.197L1193.39 352.855Z" fill="#FFB0B1"/>
<path d="M1103.75 47.3642H1103.12C1078.36 47.3642 1056.46 61.9087 1043.87 83.3709C1031.27 61.9087 1009.37 47.3642 984.607 47.3642H983.985C965.402 47.5607 947.639 55.8901 934.557 70.5421C921.475 85.1942 914.131 104.985 914.121 125.614C914.121 151.23 924.229 187.578 943.937 217.486C981.487 274.476 1043.87 324.337 1043.87 324.337C1043.87 324.337 1106.24 274.486 1143.79 217.486C1163.5 187.578 1173.6 151.23 1173.6 125.614C1173.59 104.987 1166.25 85.1972 1153.17 70.5454C1140.09 55.8936 1122.33 47.5632 1103.75 47.3642V47.3642ZM1094.84 221.871C1092.02 221.859 1089.27 220.901 1086.95 219.122C1084.63 217.344 1082.85 214.827 1081.84 211.904H1067.03C1066.06 211.898 1065.11 211.553 1064.32 210.919C1063.53 210.285 1062.94 209.393 1062.63 208.367L1058.08 193.16L1043.69 248.97C1043.41 250.045 1042.82 250.989 1042.02 251.662C1041.21 252.335 1040.23 252.699 1039.23 252.701H1038.94C1037.89 252.645 1036.88 252.189 1036.1 251.411C1035.31 250.634 1034.79 249.58 1034.62 248.427L1019.79 149.425L1008.95 208.008C1008.71 209.121 1008.13 210.109 1007.32 210.816C1006.5 211.522 1005.5 211.905 1004.47 211.904H983.612C982.987 211.934 982.363 211.822 981.777 211.577C981.192 211.332 980.657 210.958 980.205 210.477C979.754 209.996 979.394 209.419 979.149 208.781C978.903 208.142 978.777 207.454 978.777 206.76C978.777 206.065 978.903 205.378 979.149 204.739C979.394 204.1 979.754 203.523 980.205 203.043C980.657 202.562 981.192 202.188 981.777 201.943C982.363 201.697 982.987 201.586 983.612 201.615H1000.81L1016.17 122.85C1016.42 121.686 1017.03 120.654 1017.89 119.933C1018.75 119.211 1019.81 118.844 1020.89 118.894C1021.97 118.944 1022.99 119.408 1023.8 120.207C1024.6 121.006 1025.13 122.09 1025.29 123.274L1040.44 224.266L1053.33 174.332C1053.6 173.28 1054.17 172.353 1054.95 171.689C1055.73 171.025 1056.69 170.66 1057.67 170.647H1057.77C1058.74 170.648 1059.69 170.99 1060.48 171.625C1061.27 172.26 1061.86 173.156 1062.16 174.184L1070.39 201.643H1081.66C1082.46 198.941 1083.92 196.537 1085.87 194.697C1087.82 192.857 1090.2 191.652 1092.73 191.215C1095.26 190.778 1097.86 191.126 1100.22 192.221C1102.59 193.316 1104.63 195.115 1106.13 197.419C1107.64 199.724 1108.54 202.444 1108.73 205.28C1108.93 208.117 1108.42 210.958 1107.25 213.492C1106.09 216.025 1104.31 218.151 1102.13 219.637C1099.94 221.122 1097.43 221.908 1094.87 221.908L1094.84 221.871Z" fill="#63B4FF"/>
</g>
<path d="M316 457.5C177 483 237.5 608 -44.5 795.5L-102.164 841.151C-116.202 852.264 -109.686 874.807 -91.8846 876.718L446.5 934.5L1509.52 972.412C1519.09 972.754 1527.56 966.263 1529.72 956.932L1569.03 786.965C1574.36 763.923 1578.97 764.422 1563.44 782.26C1526.7 824.464 1462.21 830.832 1354.5 741C1161.84 580.327 1015.44 608.233 956.576 647.487C950.173 651.757 942.147 653.019 935.125 649.867C766.754 574.273 424.692 437.56 316 457.5Z" fill="#63B4FF" fill-opacity="0.38"/>
<defs>
<linearGradient id="paint0_linear" x1="185750" y1="427661" x2="185750" y2="136716" gradientUnits="userSpaceOnUse">
<stop stop-color="#808080" stop-opacity="0.25"/>
<stop offset="0.54" stop-color="#808080" stop-opacity="0.12"/>
<stop offset="1" stop-color="#808080" stop-opacity="0.1"/>
</linearGradient>
<clipPath id="clip0">
<rect width="917" height="721" fill="white" transform="translate(518)"/>
</clipPath>
</defs>
</svg>
